<svg xmlns="http://www.w3.org/2000/svg" viewBox="0 0 1594.43 967.87"><defs><style>.cls-1,.cls-9{opacity:0.5;}.cls-2{fill:#ffb8a4;}.cls-3,.cls-8,.cls-9{fill:#ffe4dd;}.cls-4{fill:#18a795;}.cls-10,.cls-5{fill:#fc981f;}.cls-6{fill:#fc5b23;}.cls-7{fill:#011d44;}.cls-8{opacity:0.38;}.cls-10,.cls-8,.cls-9{isolation:isolate;}.cls-10{opacity:0.2;}.cls-11{fill:#fff;}</style></defs><g id="Capa_2" data-name="Capa 2"><g id="Capa_1-2" data-name="Capa 1"><g class="cls-1"><path class="cls-2" d="M194.77,853.16c-65.55,3.27-94.06-75.59-43.4-107.72s175.22.35,187.21,37.63S244.34,850.58,194.77,853.16Z"/><path class="cls-3" d="M233.26,821.21c-20.33-15.29-37.4-35.56-46.84-58.59a100.5,100.5,0,0,1-7.81-34.87,73.25,73.25,0,0,1,1.63-17.7c1.09-5.15,2.55-10.47,5.27-15.11,4.72-7.91,13.07-13.58,21.24-17.87a126.06,126.06,0,0,1,26-9.45,87,87,0,0,1,9.62-1.72,61.74,61.74,0,0,1,12.53.17,157.4,157.4,0,0,1,35.59,6.19,168,168,0,0,1,60.1,33.16c18.16,15.46,33.23,33.84,46.12,53.6,7.27,11,14.71,22.5,19.43,34.7s5.27,26.11-1.09,38c-9.26,17.69-30.5,30.23-51.38,29.72-18.52-.52-37.23-4.3-55.2-8.76-21.61-5.5-43.4-12.55-62.83-23.54a137.54,137.54,0,0,1-12.35-7.9c-1.45-1-3.26.86-2,1.89,17.79,13.23,39.58,21.47,60.83,27.83a333,333,0,0,0,62.28,12.71c6.35.52,12.89,1,19.06,0a64,64,0,0,0,33.59-17c9.45-8.93,14.89-20.44,15.26-33.15.36-13.58-5.63-25.94-12.35-37.63-12.53-21.64-27.06-42.43-45-60.47-16.53-16.49-36-30.58-57.93-39.86a150.83,150.83,0,0,0-34.68-10,170.56,170.56,0,0,0-18.88-2.06,70.49,70.49,0,0,0-12,.17,113,113,0,0,0-23.61,6c-9.26,3.44-18.52,7.91-26,14.26a42.16,42.16,0,0,0-9.08,10.48,52.12,52.12,0,0,0-5.27,15.46c-2.54,11.86-2,24.06.54,35.91,5.45,24.74,20.16,47.24,38.68,65.11a137.8,137.8,0,0,0,14.53,12.37C232.72,824.13,234.72,822.24,233.26,821.21Z"/><path class="cls-4" d="M610.58,933.06c38.13-20.61,143.45-49.82,266.92,0Z"/><path class="cls-5" d="M34.07,718.65c36.86,19.58,30.87,197.56,205.19,164.92,165.41-30.92,274.18,23.19,265.1,55C488,995.24,30.44,952.29,30.44,952.29Z"/><path class="cls-3" d="M33,651c50.66-78.51,92.6-154.1,73.72-200.65-20-49.48-75.36-71.3-75.36-71.3Z"/><path class="cls-5" d="M128.86,646.66a2.36,2.36,0,0,1,.36-1s.18-.34,0-.17v-.17c0-.17.18-.35.18-.52.18-.34.36-.51.55-.86l.18-.17h0c.18-.17.18-.34.36-.34l.73-.69.18-.17h0c.18,0,.36-.17.54-.34.37-.18.55-.35.91-.52,0,0,.18,0,.18-.17h0c.18,0,.37-.17.55-.17.72-.18,1.27-.86.91-1.55a1.2,1.2,0,0,0-1.64-.86,10,10,0,0,0-6.72,7,1.23,1.23,0,0,0,.91,1.55C128,647.69,128.68,647.35,128.86,646.66Z"/><path class="cls-5" d="M165.17,654.74c2.73-2.58,5.45-5.16,8.36-7.73a1.3,1.3,0,0,0,0-1.89,1.48,1.48,0,0,0-2,0c-2.73,2.57-5.45,5.15-8.35,7.73a1.29,1.29,0,0,0,0,1.89A1.49,1.49,0,0,0,165.17,654.74Z"/><path class="cls-5" d="M171.53,580.86c2.72-2.06,5.26-4.12,8-6.18a1.3,1.3,0,0,0,0-1.89,1.47,1.47,0,0,0-2,0c-2.72,2.06-5.26,4.12-8,6.19a1.29,1.29,0,0,0,0,1.88A1.69,1.69,0,0,0,171.53,580.86Z"/><path class="cls-5" d="M171.53,616.94c2.72-2.06,5.26-4.12,8-6.18a1.3,1.3,0,0,0,0-1.89,1.47,1.47,0,0,0-2,0c-2.72,2.06-5.26,4.12-8,6.18a1.3,1.3,0,0,0,0,1.89A1.69,1.69,0,0,0,171.53,616.94Z"/><path class="cls-4" d="M31.14,304.76c129.29,0,23.06-218.18,183.4-218.18,39.94,0,152.52,53.25,145.26-28.69C358,36.58,29.33,57.37,29.33,57.37S-37.86,304.76,31.14,304.76Z"/><path class="cls-3" d="M1032.75,930.65c114.39-48.1,183.94-112.18,305-89.33,31.42,6,87.16,34.36,87.16,89.33Z"/><path class="cls-5" d="M1259.72,167.18c-50.84-3.44-49,44.67-1.82,67,30.52,14.43,89,51.54,99.87,24.05S1316,171.13,1259.72,167.18Z"/><path class="cls-5" d="M1182,924.56c-15.26,10.65-36.14,10.48-52.66,2.75-17.43-8.25-28.87-24.74-34.14-41.92-6.17-20.27-4.36-41.75.36-62.19,4.91-21,12-41.75,19.61-61.85a606.45,606.45,0,0,1,26.52-59.61c9.62-18.9,20-37.79,32-55.66,1.27-1.72,2.91-4,5.45-3.78,2,.17,3.45,1.89,4.36,3.43,2.54,4,2.9,8.94,3.81,13.41,2,11.33,3.81,22.5,5.27,33.84,2.9,22.5,4.9,45,5.81,67.69a753.31,753.31,0,0,1-6.9,135.54c-.73,5.5-1.64,11-2.54,16.5-.19,1.54,2.36,2.4,2.54.68a739.59,739.59,0,0,0,9.8-141.56c-.54-23.7-2.36-47.41-5.08-71.12-1.45-11.51-3.09-23.19-4.9-34.53-.91-5.5-1.46-11.34-3.09-16.66-.91-3.27-2.72-7.22-6-8.94-3.45-1.89-7.08-.34-9.26,2.41-3.45,4.12-6,8.93-8.72,13.4-5.81,9.62-11.44,19.41-16.89,29.2a646.2,646.2,0,0,0-28.87,60.65,583.26,583.26,0,0,0-22.15,64.08c-6,21.3-10,43.8-5.81,66,3.45,18.21,12.71,36.24,28.51,47.76,14.52,10.65,35.22,14.77,52.84,8.93a43.45,43.45,0,0,0,12-6C1184.92,925.76,1183.47,923.53,1182,924.56Z"/><path class="cls-6" d="M1592.44,131.29c-20.16,9.45-41.58,16-63.55,20.62-10.54,2.23-21.25,4.12-32.15,5.84-11.07,1.72-22.15,3.26-33.4,3.26-10.71,0-21.61-1.54-31.23-6.35a46.24,46.24,0,0,1-19.25-17.53c-4.53-7.9-5.81-16.83-2.36-25.42a65.64,65.64,0,0,1,8-13.75c3.27-4.81,6.53-9.45,9.8-14.26,14.53-21.3,29-42.43,43.77-63.73.9-1.38-1.46-2.75-2.37-1.38-13.61,19.93-27.41,39.86-41,59.79-3.26,4.81-6.71,9.79-10,14.6-3.09,4.64-6.36,9.11-8.9,14.09a31.28,31.28,0,0,0-1.64,25.77c3.09,7.9,9.09,14.77,16.17,19.93,8.17,5.67,17.8,8.76,27.78,10,11.26,1.37,22.7.52,34-.86,11.26-1.55,22.51-3.43,33.77-5.5,25.42-5,50.66-11.85,73.9-23C1595.35,132.84,1593.89,130.6,1592.44,131.29Z"/><path class="cls-7" d="M1205.25,156.87c-9.63,6.19,0,22.34,14.52,12C1229,162.37,1216.15,150,1205.25,156.87Z"/><path class="cls-7" d="M90.91,712.29c-6.54,4.12,0,15.12,9.8,8.24C107.07,715.9,98.35,707.65,90.91,712.29Z"/><path class="cls-6" d="M551.57,833.75c-32-8.76-59.92,72.15-.91,59.27C595.87,883.23,607.86,849.21,551.57,833.75Z"/><path class="cls-6" d="M1050.91,40.05c-32.51,6.7,29,73.87,72.63,58.41S1092.67,31.46,1050.91,40.05Z"/><path class="cls-5" d="M491.65,53.79c-6,45.36,205.18,70.44,268.73,1.72C798.88,13.77,491.65,53.79,491.65,53.79Z"/><path class="cls-5" d="M644,138c2,.69,4.18,1.38,6.18,2.06a1.3,1.3,0,0,0,1.63-.85,1.22,1.22,0,0,0-.91-1.55c-2-.69-4.17-1.37-6.17-2.06a1.3,1.3,0,0,0-1.63.86A1.21,1.21,0,0,0,644,138Z"/><path class="cls-5" d="M800.15,109.63c2.72.68,5.45,1.37,8.17,1.89a1.3,1.3,0,0,0,1.63-.86,1.22,1.22,0,0,0-.9-1.55c-2.73-.69-5.45-1.37-8.18-1.89a1.31,1.31,0,0,0-1.63.86A1.22,1.22,0,0,0,800.15,109.63Z"/><path class="cls-5" d="M918,173.54l10.35,2.06a1.33,1.33,0,0,0,1.64-.86,1.23,1.23,0,0,0-.91-1.55l-10.35-2.06a1.26,1.26,0,1,0-.73,2.41Z"/><path class="cls-4" d="M1466.72,778.77c24.51-49.82-91.34-90.19-117.48-61.84s22.51,55.83,41.22,63.56C1433,798.19,1458.37,795.44,1466.72,778.77Z"/><path class="cls-7" d="M479.48,130.24c-2.72-2.4-5.44-5-8.17-7.38-.54-.35-.91-.86-1.45-1.21a1.5,1.5,0,0,0-2,0,1.3,1.3,0,0,0,0,1.89c1.64,1.38,3.27,2.75,4.72,4.13,1.64,1.37,3.27,2.92,4.72,4.29a1.48,1.48,0,0,0,2,0A1,1,0,0,0,479.48,130.24Z"/><path class="cls-7" d="M453.34,68.05c-2.36-2.06-4.72-4.29-7.09-6.35a1.46,1.46,0,0,0-2,0,1.29,1.29,0,0,0,0,1.89c2.36,2.06,4.72,4.29,7.08,6.35a1.48,1.48,0,0,0,2,0A1.3,1.3,0,0,0,453.34,68.05Z"/><path class="cls-7" d="M457.15,96.57c-2.36-2.23-4.72-4.29-7.08-6.53a1.5,1.5,0,0,0-2,0,1.3,1.3,0,0,0,0,1.89c2.36,2.24,4.72,4.3,7.08,6.53a1.48,1.48,0,0,0,2,0A1.3,1.3,0,0,0,457.15,96.57Z"/><path class="cls-7" d="M504.36,137.29c-2.36-2.07-4.72-4.3-7.08-6.36a1.48,1.48,0,0,0-2,0,1.31,1.31,0,0,0,0,1.89c2.36,2.06,4.72,4.29,7.08,6.36a1.5,1.5,0,0,0,2,0C504.72,138.49,504.9,137.8,504.36,137.29Z"/><path class="cls-7" d="M508.17,165.8c-2.36-2.23-4.72-4.29-7.08-6.52a1.48,1.48,0,0,0-2,0,1.3,1.3,0,0,0,0,1.89c2.36,2.23,4.72,4.29,7.09,6.52a1.46,1.46,0,0,0,2,0A1.29,1.29,0,0,0,508.17,165.8Z"/><path class="cls-7" d="M953,937.51c4.72-4.29,9.44-8.59,14.16-13,1.27-1.21-.73-2.92-2-1.89-4.72,4.29-9.44,8.59-14.16,13A1.38,1.38,0,0,0,953,937.51Z"/><path class="cls-7" d="M969.38,904.53c3.09-2.92,6.17-5.84,9.26-8.93a1.3,1.3,0,0,0,0-1.89,1.48,1.48,0,0,0-2,0c-3.08,2.92-6.17,5.84-9.26,8.93a1.3,1.3,0,0,0,0,1.89A1.5,1.5,0,0,0,969.38,904.53Z"/><path class="cls-7" d="M996.62,925.14c3.08-2.92,6.17-5.84,9.26-8.93a1.3,1.3,0,0,0,0-1.89,1.5,1.5,0,0,0-2,0c-3.09,2.92-6.17,5.84-9.26,8.93a1.29,1.29,0,0,0,0,1.89A1.48,1.48,0,0,0,996.62,925.14Z"/><path class="cls-7" d="M1009.15,887.18c2.35-2.24,4.72-4.47,6.89-6.53a1.29,1.29,0,0,0,0-1.89,1.46,1.46,0,0,0-2,0l-6.9,6.53a1.29,1.29,0,0,0,0,1.89A1.5,1.5,0,0,0,1009.15,887.18Z"/><path class="cls-8" d="M978.28,242.77c-69.73,7.56-92.61,132.28,72.63,108.23S1089,230.74,978.28,242.77Z"/><path class="cls-9" d="M633.82,831.86c-18.88,2.06-21.79,46.56,19.8,29.38C661.42,858,663.78,828.59,633.82,831.86Z"/><path class="cls-10" d="M165.9,331.76C133,335.37,128,412.68,200,382.78,213.84,377.11,218.19,326.09,165.9,331.76Z"/><path class="cls-6" d="M1316.73,345.67c-2.17,3.44-4.35,6.71-6.53,10.14-.9,1.38,1.45,2.75,2.36,1.38,2.18-3.44,4.35-6.7,6.54-10.14C1320,345.5,1317.83,344.3,1316.73,345.67Z"/><path class="cls-6" d="M1316.73,373c-2.35,2.75-4.9,5.67-7.25,8.42a1.27,1.27,0,0,0,0,1.89,1.49,1.49,0,0,0,2,0l7.27-8.42a1.3,1.3,0,0,0,0-1.89A1.51,1.51,0,0,0,1316.73,373Z"/><path class="cls-6" d="M1309.66,399.45c-2.55,2.75-5.09,5.49-7.45,8.24a1.3,1.3,0,0,0,0,1.89,1.46,1.46,0,0,0,2,0c2.55-2.75,5.1-5.49,7.45-8.24a1.3,1.3,0,0,0,0-1.89A1.68,1.68,0,0,0,1309.66,399.45Z"/><path class="cls-3" d="M1164,776.54c10.53,11.34,27.6,14.6,42.85,13.74a87.27,87.27,0,0,0,41.94-13c12-7.56,21.79-18.38,26.33-31.44,4.36-12.71,2.91-26.63-2.9-38.66a57.55,57.55,0,0,0-33.77-29.72,1.26,1.26,0,1,0-.73,2.41c25.43,8.25,42,36.08,36,61-6.35,26.45-34.32,43.29-61.37,46.38-16.16,1.89-35-.34-46.48-12.54C1164.76,773.45,1162.76,775.17,1164,776.54Z"/><path class="cls-3" d="M336.76,170.79c-10.53-11.34-27.6-14.61-42.85-13.75A87.39,87.39,0,0,0,252,170.1c-12,7.56-21.79,18.38-26.33,31.44-4.36,12.71-2.91,26.63,2.9,38.65a57.54,57.54,0,0,0,33.78,29.72,1.25,1.25,0,1,0,.72-2.4c-25.42-8.25-41.94-36.08-36-61,6.36-26.46,34.32-43.29,61.37-46.39,16.16-1.88,35.05.35,46.49,12.55C336,173.88,337.85,172,336.76,170.79Z"/><path class="cls-3" d="M98,359.08c-2.72-2.93-1.27-7.91.36-11,1.46-2.75,4.91-7,8.72-6,3.45.86,5.45,5.15,6.17,8.24.73,2.75,1.09,7.73-2,9.45a13.58,13.58,0,0,1-6.9,1c-2.17,0-4.9-.34-6.35-1.71A1.38,1.38,0,0,0,96,361c1.64,1.72,4.54,2.07,6.72,2.41a21.71,21.71,0,0,0,8.17-.69c4.9-1.54,5.81-6.87,5.27-11.16s-2.73-9.45-7.08-11.34c-4.91-2.24-9.63,1.54-12.17,5.15C94,349.63,92,356.67,96,361.14,97.26,362.17,99.08,360.28,98,359.08Z"/><path class="cls-11" d="M1110.28,195.18c-5.08-5.15.91-18.38,8.36-19.41,7.62-1,12.89,14.43,7.44,19.58C1123.17,197.93,1112.83,197.76,1110.28,195.18Z"/><path class="cls-3" d="M53.87,45.89C41,54.48,35.16,69.94,37,84.55c2,15.8,12.89,28.51,28.14,34.87a63.5,63.5,0,0,0,49.21-.34c16.52-7,29.6-20.62,37.22-36.08,6.72-13.4,10.54-34.7-6.71-42.61-15.62-7.21-36.14-.34-47.21,11.17A34.11,34.11,0,0,0,87.46,72.35c-.73,7.38,2,14.43,6.53,20.27,9.45,11.68,26.88,17.35,40.5,8.42,7.8-5.16,14-13.23,19.24-20.79a80.81,80.81,0,0,0,12.35-26.11c4-16.15.73-34.19-11.44-46.56a44.8,44.8,0,0,0-9.8-7.39c-1.46-.86-2.91,1.38-1.46,2.24C157.55,10,165,25.62,165,40.57c.18,17.69-9.26,34.35-20.88,47.75C138.84,94.51,132.67,101,124,102.58c-6.91,1.38-14-.86-19.8-4.46a30.82,30.82,0,0,1-12.89-16c-2.36-6.87-1.09-14.43,2.36-20.79,7.26-13.57,23.61-22,39.59-21.13,8.71.52,17.06,4.47,20,12.71,2.54,7,1.27,15.12-1.09,22-5.27,14.78-16.16,28.18-29.78,36.94a61.46,61.46,0,0,1-45.94,8.42C61.49,117,47.51,107.74,42.06,93.82,37.16,81.28,38.61,66,47.33,55.17a32.94,32.94,0,0,1,7.81-7.05C56.77,47.09,55.32,44.86,53.87,45.89Z"/></g></g></g></svg>