<svg xmlns="http://www.w3.org/2000/svg" viewBox="0 0 264.92 530.91"><defs><style>.cls-1{fill:#0b2e4a;}.cls-2{fill:#105f9a;}.cls-3{fill:#ecc5ae;}.cls-4{fill:#d88439;}.cls-5{fill:#93c4e5;}.cls-6{fill:#194c78;}.cls-7{fill:#e1a484;}.cls-8{fill:#d16926;}.cls-9{fill:#70313a;}.cls-10{fill:#182232;}</style></defs><g id="Capa_2" data-name="Capa 2"><g id="Capa_1-2" data-name="Capa 1"><path class="cls-1" d="M81.36,451.94s-7.4,47.5-1.71,79H239s.68-46.47-6-86.93Z"/><path class="cls-2" d="M132.93,219.67s-36.43,2-54.53,13S5.09,310.92.31,341.48s47.36,90.23,52.48,93.64,20.49-18.86,21.86-21.82-28-57.84-28-68.41,36.09-46.25,36.09-46.25,1,112.62-5.81,156.25c0,0,86.29,37.05,161,6.82,0,0-9.22-64.66-7.51-105.11L264,344.33c-5.24-32.62-22.2-89.43-32.9-102.16s-52.82-20.68-52.82-20.68-35.75-7.84-36.77-7.16S132.93,219.67,132.93,219.67Z"/><path class="cls-3" d="M47.78,417.05c-5.12,1,13.32,23.52,19.81,27.27,7.85,4.44,16,0,22.54,2.73s10.58,6.48,13.32,6.82,4.09-.68,3.75-3.41c0,0,6.49,1.7,5.47-4.77,0,0,4.55-.46,2.73-6.82,0,0,3.76-.34,1.37-5.8s-8.88-11.93-17.76-15a35.36,35.36,0,0,0-20.27-1c-4.44,1-9.79-12.27-12.18-12.95s1.37,2-2.39-.68S47.78,417.05,47.78,417.05Z"/><path class="cls-3" d="M137.71,197.17s-3.07,15-4.78,22.5c0,0,25.95,13.29,49.75.34,0,0-3.08-19.09-3.42-22.84S137.71,197.17,137.71,197.17Z"/><path class="cls-4" d="M189.85,195.58s27.09-14.32,30.05-51.25c4.33-53.07-31.64-62.05-31.64-62.05s-10.93-18.75-17.19-16.93-4.67,8.3-4.67,8.3-20.83-15.57-29.71-11.82-8,15.23-8,15.23-17.19-16.59-27.09-6.59.68,31.59.68,31.59-16.17,27-.68,62.38,36.31,37.05,50.54,34.32S189.85,195.58,189.85,195.58Z"/><path class="cls-3" d="M119.61,146.37s-11.27-1-10.59,10.91,10.59,12.27,10.59,12.27,8.31,39.32,44.06,38.3,36.42-39.43,36.42-39.43,9.45-3.3,8.54-12.27-7.85-8.19-7.85-8.19-12.64-13-15.37-25.56c0,0-37.11,4.77-53.5,1C131.91,123.42,125.76,142.28,119.61,146.37Z"/><path class="cls-3" d="M199.07,252.74c-4.78-7.73-7.17-14-8.54-24.55s5.47-26.25,2.39-31.7-7.85,0-11.27,3.75-5.46,12.61-6.49,12.95-29.71-19.77-37.45-23.86-11.61,2.72-7.51,8.52,13.32,15,13.32,15-.34,3.75-.34,9.55c0,2.72-2.74,6.47-1,9.88s-1,5.46,2.39,9.89,17.42,18.75,27.32,25.22S199.07,252.74,199.07,252.74Z"/><path class="cls-2" d="M166.4,265.92c-.91,1.13,36.77,91.59,55.21,106.47s41.21,9.55,43.26-19.43S210.68,261,200.44,247.17C200.44,247.28,172.2,258.42,166.4,265.92Z"/><path class="cls-2" d="M74.65,413.3c.56-1.25-4.56-12.16-10.48-25l-2.39,1.37a57.1,57.1,0,0,0-12.29,9.88,55.62,55.62,0,0,0-9.91,14.66,35.58,35.58,0,0,0-1.7,4.43c7.4,9.09,13.43,15.46,14.91,16.48C57.91,438.53,73.28,416.26,74.65,413.3Z"/><path class="cls-5" d="M145.91,2.4c-5.47-3.75-12.75-2.84-18.1.91-4.44,3.18-9.56,10.57-5.92,15.91.91,1.36,3.07,1.13,4.21.34,1.82-1.37,2.5-3.87,3.76-5.8a10.26,10.26,0,0,1,4.55-4c3.87-1.71,7.4-.23,8.88,3.75s-1.37,9.54-2,13.52c-1,5.45-.34,11.47,3.19,15.79,4,5,11.15-.45,8.88-5.91-1.37-3.29-2.05-5.45-1.48-9.09.57-3.29,1.71-6.47,1.59-9.77C153.31,12.17,150.8,5.69,145.91,2.4Z"/><path class="cls-5" d="M161.16,51.94a5,5,0,0,0-1.36-1.7A3.85,3.85,0,0,0,158,49.1a3.71,3.71,0,0,0-1.59-.34,3.53,3.53,0,0,0-2.16.34,4.63,4.63,0,0,0-1.94,1l-.91,1a4.13,4.13,0,0,0-.79,1.93,3.11,3.11,0,0,0-.12,1.48,4.67,4.67,0,0,0,.46,2.16l.79,1.13A6.44,6.44,0,0,0,154,59.44a3.69,3.69,0,0,0,2.16.23h.8l1.37-.45a5,5,0,0,0,1.7-1.37,4,4,0,0,0,.8-1.13,3.94,3.94,0,0,0,.57-2,6.76,6.76,0,0,0-.11-1.48C161.5,53,161.39,52.4,161.16,51.94Z"/><path class="cls-5" d="M92.18,56.26c-2.39-6.93-9.34-10.91-16.51-11.13C69.64,45,60.19,48.08,60,55.24c-.11,1.82,1.94,3.07,3.53,3.07,2.5,0,4.78-1.82,7.06-2.73A12.28,12.28,0,0,1,77.26,55c4.44,1,6.72,4.66,5.35,9.09s-7.51,7.5-10.7,10.46c-4.55,4.09-7.74,9.88-7.62,16,.22,6.93,10.13,6.93,11.72.68.91-3.75,1.82-6.25,4.67-9,2.62-2.5,5.69-4.54,7.85-7.5C92.29,69.67,94.23,62.4,92.18,56.26Z"/><path class="cls-5" d="M72.94,110a3.78,3.78,0,0,0-.12-2.27,5,5,0,0,0-.79-2.16,6.17,6.17,0,0,0-1.14-1.25,4.07,4.07,0,0,0-2.16-1.14,4.3,4.3,0,0,0-2.39-.34l-1.48.34a3.93,3.93,0,0,0-1.94,1.25,2.73,2.73,0,0,0-1,1.25A4.1,4.1,0,0,0,61,108l-.11,1.6a7,7,0,0,0,1,3,4.77,4.77,0,0,0,1.7,1.7,4.46,4.46,0,0,0,.8.46l1.59.45a3.82,3.82,0,0,0,2.28-.11,3.33,3.33,0,0,0,1.48-.45,5.56,5.56,0,0,0,1.82-1.37c.34-.45.57-.91.91-1.36A13.46,13.46,0,0,1,72.94,110Z"/><path class="cls-5" d="M234.7,49.67c-5.24-4.43-12.86-4.32-18.67-1-4.89,2.84-11,9.88-7.85,15.79.79,1.48,3.07,1.59,4.32.8,2.05-1.25,3-3.75,4.44-5.57A11.06,11.06,0,0,1,222.07,56c4.09-1.36,7.62.57,8.65,4.78s-2.39,9.66-3.65,13.63c-1.7,5.46-1.48,11.71,1.6,16.59,3.53,5.57,11.49.69,9.79-5.11-1-3.52-1.6-5.91-.57-9.55.91-3.29,2.39-6.47,2.73-9.88C241.3,60.58,239.37,53.65,234.7,49.67Z"/><path class="cls-5" d="M245.17,102.28a5,5,0,0,0-1.13-1.82,5.2,5.2,0,0,0-1.71-1.36,3.71,3.71,0,0,0-1.6-.45,3.79,3.79,0,0,0-2.27.11,3.36,3.36,0,0,0-2.05.91l-1,1a6.44,6.44,0,0,0-1,1.94,2.15,2.15,0,0,0-.23,1.47,4,4,0,0,0,.34,2.27l.69,1.37a5.68,5.68,0,0,0,4.44,2.38h.91l1.48-.34a5,5,0,0,0,1.82-1.13,3,3,0,0,0,.91-1.14,4.2,4.2,0,0,0,.8-2.05,6.62,6.62,0,0,1,.11-1.47A13.43,13.43,0,0,1,245.17,102.28Z"/><path class="cls-6" d="M246.88,332.39c-.8-1.59-1.82-3.06-2.73-4.54q-2.57-4.26-5.12-8.52c-3.42-5.69-6.72-11.25-10.13-16.94-6.72-11-13.1-22-17.88-34.09-1.36-3.41-2.62-6.7-3.87-10.11-.57-1.7-1.25-3.29-1.82-5-.23-.45-.34-1-.57-1.48a2.23,2.23,0,0,0,.68-3c-1.93-4.21-8.42-1-11.38.11-1.93.8-3.76,1.82-5.69,2.73s-3.76,1.7-5.58,2.61c-3.64,1.93-7.28,4-10.7,6.25-1.71,1.14-3.41,2.28-5.12,3.52-.8.57-1.48,1.14-2.28,1.71-.34.34-.8.57-1.14.91a8.81,8.81,0,0,1-1.14,1,1.32,1.32,0,0,0-.45,2.05c1.48,7.72,4.78,15.22,7.85,22.5S176.3,306.94,180,314.1a323.83,323.83,0,0,0,25,41.36c2.62,3.75,5.46,7.39,8.2,11,1.36,1.71,2.73,3.53,4.21,5.12a9.19,9.19,0,0,0,2.84,2.27,27.21,27.21,0,0,0,3.31,1,.52.52,0,0,0,.79-.56,19.57,19.57,0,0,1-.34-2.62,9.41,9.41,0,0,0-1.14-2.95,58.16,58.16,0,0,0-4-5.12c-2.39-2.95-4.78-6-7.06-9.09-4.9-6.36-9.45-13.07-13.77-19.77a362.27,362.27,0,0,1-23.34-41.59q-2.91-6.13-5.47-12.27c-1.59-3.64-3.07-7.39-4.89-10.91a17.19,17.19,0,0,0,3.64-2.5c1.6-1.14,3.19-2.16,4.78-3.18,3.3-2.05,6.72-4,10.14-5.69a64.2,64.2,0,0,1,10.35-4.43c1.83-.45,3.65-1.25,5.35-1.81a19.68,19.68,0,0,1,2.4-.69c.11.57.34,1.14.45,1.71.57,1.7,1.14,3.29,1.71,5,1,3.07,2.05,6,3.18,9a176.61,176.61,0,0,0,7.52,18c5.8,11.82,12.52,23.07,19.24,34.32l5.58,9.43c.91,1.59,1.93,3.18,2.84,4.88s2.05,3.64,4.1,4a1.81,1.81,0,0,0,2.16-1.25C248.48,335.46,247.68,333.87,246.88,332.39Z"/><path class="cls-7" d="M121.32,156.83a6.27,6.27,0,0,0-1.59-4.21,5.74,5.74,0,0,0-1.83-1.47c-.34-.23-.79-.34-1.13-.57a2.5,2.5,0,0,0-1.6,0,1.19,1.19,0,0,0-.91,1.13,1.4,1.4,0,0,0,.68,1.37l.12.11.23.23c.11,0,.22.11.34.11s.22.12.34.12.34.22.57.34.23.11.23.22a1.88,1.88,0,0,1,.34.46.25.25,0,0,0,.22.23c.12.22.23.34.35.56v.12c-.12.11-.23.11-.23.22a2.75,2.75,0,0,0-.68,1.25v.12a6.43,6.43,0,0,0-1.14,1.93,2.9,2.9,0,0,0,1.14,3.18,2,2,0,0,0,2.5-.23s.46-.45.23-.34c.23-.22.34-.45.57-.68A9.09,9.09,0,0,0,121.32,156.83Z"/><path class="cls-7" d="M202.26,156.94a.42.42,0,0,1,.11-.34c0-.11.12-.34.12-.45s0-.12.11-.12a3.5,3.5,0,0,1,.45-.91c.12-.22.35-.57.46-.79,0,0,.34-.57.11-.23a3.25,3.25,0,0,0,.46-.91,1.66,1.66,0,0,0-.57-1.59,1.81,1.81,0,0,0-1.71-.11c-.79.34-1.25,1.25-1.71,1.93a7.65,7.65,0,0,0-1,2.16,6.57,6.57,0,0,0-.34,4.66,4.17,4.17,0,0,0,3.64,2.84,3.13,3.13,0,0,0,3.42-3C206.13,158.19,204.19,156.15,202.26,156.94Z"/><path class="cls-7" d="M107.09,450.91c-.8-2.27-3-3.52-4.9-4.88-2.16-1.59-4.32-3.18-6.6-4.55a22.87,22.87,0,0,0-6.72-2.72c-2.16-.46-4.66-.8-6.6.45-.11.11-.11.34,0,.34,2,.8,4.21.91,6.26,1.59a29.46,29.46,0,0,1,6.26,3.18c2,1.37,3.88,2.84,5.81,4.32s3.64,3,6,2.73C107,451.37,107.2,451.14,107.09,450.91Z"/><path class="cls-7" d="M110.62,440.57A122.31,122.31,0,0,0,100,433.64a18.89,18.89,0,0,0-6.37-2c-2-.34-4.56-.57-6.38.45a.65.65,0,0,0,.12,1.14c1.82.79,4.09.57,6,.91A18.1,18.1,0,0,1,99,436.26c3.75,2.16,7,5.11,10.58,7.61.8.57,3.08,1.93,3.87.57C114.38,442.85,111.64,441.26,110.62,440.57Z"/><path class="cls-7" d="M109.71,432.28a45.7,45.7,0,0,0-5.24-4,56.72,56.72,0,0,0-5.69-3.07,16,16,0,0,0-3-1,4.42,4.42,0,0,0-3,0,.39.39,0,0,0-.11.57,4.31,4.31,0,0,0,2.16,1.59c.91.45,1.93.91,2.84,1.36a50.81,50.81,0,0,1,5.36,3.07,39.89,39.89,0,0,1,4.78,3.75c1.36,1.25,2.73,3.41,4.78,3.52a.66.66,0,0,0,.68-.68C113.46,435.35,111.07,433.53,109.71,432.28Z"/><path class="cls-7" d="M175.85,211.83a19.09,19.09,0,0,0-1.14-2.05,5.9,5.9,0,0,0-1.71-1.59c-1.25-1-2.5-2-3.87-3.07-2.62-2-5.24-3.86-8-5.68a145.35,145.35,0,0,0-18-9.89c-2.62-1.25-5.58-2.15-8.54-1.25a6.82,6.82,0,0,0-4.9,6.14c-.22,3.07,1.48,5.8,3.42,8.07,2.27,2.73,4.78,5.34,7.06,8,1,1.25,2.16,2.39,3.18,3.64a6.35,6.35,0,0,0-2.61,4.09,10.23,10.23,0,0,0,.79,6.14c.12.22.23.34.34.57a2.22,2.22,0,0,0-.91.45,4.31,4.31,0,0,0-1.14,2.84,12.76,12.76,0,0,0,1.6,6.71,15.73,15.73,0,0,0,4.21,5.22,6.61,6.61,0,0,0,3.42,1.82,5.68,5.68,0,0,1,1.36.11,1.84,1.84,0,0,0,1.37-.45.69.69,0,0,0,.11-.45,1.83,1.83,0,0,0-.57-1,3.43,3.43,0,0,0-.68-.57,29.63,29.63,0,0,0-3.53-3.06,15.81,15.81,0,0,1-2.85-3.75,19,19,0,0,1-1.48-4.44,4.42,4.42,0,0,1,0-1.7,19.86,19.86,0,0,0,3,3.18,10.38,10.38,0,0,0,3.19,2.16c1,.34,2.73.23,3-1,0-.23,0-.46-.23-.57a.11.11,0,0,1-.11-.11,5.94,5.94,0,0,0-1.59-1.82c-.69-.57-1.37-1.25-2.17-1.82a15,15,0,0,1-3.53-4,6.39,6.39,0,0,1-.79-3.86,6.19,6.19,0,0,1,1.14-2.84c.91.91,1.82,1.93,2.73,2.73a16.12,16.12,0,0,0,4.21,3.06,15.89,15.89,0,0,0,5.12.91.43.43,0,0,0,.23-.79,23.24,23.24,0,0,1-3-2.84c-1-1-2.16-1.82-3.19-2.73a77.77,77.77,0,0,1-5.92-6.25l-6.26-6.93c-1.71-1.93-4.1-4-5-6.48-.79-2-.11-4.2,2.28-4.66,2.62-.45,5.12,1,7.29,2.16,5.23,2.61,10.47,5.23,15.48,8.3,2.73,1.59,5.46,3.4,8,5.22,1.36,1,2.73,1.93,4,3.07a9,9,0,0,0,1.71,1.25c.68.34,1.48.46,2.27.8C175.62,212.85,176.07,212.28,175.85,211.83Z"/><path class="cls-7" d="M193.38,198.08c-1.14-4-5-6.71-9-5s-5.57,6.36-7,10.11c-.91,2.5-1.71,5.11-2.39,7.73a17.24,17.24,0,0,0-.46,7.61.75.75,0,0,0,1.37.23,35.15,35.15,0,0,0,2.27-6.93c.69-2.39,1.37-4.89,2.28-7.16a27.89,27.89,0,0,1,3.07-6.37c1.14-1.47,3.3-3,5-1.47s1.71,4.09,1.48,6.13c-.22,2.62-.57,5.23-.79,7.84s-.57,5.35-.8,8a20.45,20.45,0,0,0-.11,3.75,23,23,0,0,0,.79,3.86c.12.34.46.34.69.12a15.45,15.45,0,0,0,1.48-3,19.7,19.7,0,0,0,.68-3.52c.34-2.5.45-5,.8-7.39s.45-5,.79-7.38S194.06,200.35,193.38,198.08Z"/><path class="cls-8" d="M209.77,145.92a10.06,10.06,0,0,0-1.93-.34c-.69,0-1.49.11-2.17.11a11.23,11.23,0,0,1-4.21-1.13,20.5,20.5,0,0,1-6.83-6,44.5,44.5,0,0,1-4.89-8.07c-.8-1.47-1.37-3-2.17-4.43-.34-.68-.8-1.36-1.14-1.93a7.42,7.42,0,0,1-.68-.91c.34-.11.68-.11,1-.23a3.07,3.07,0,0,0,1.6-.79c.45-.46.8-1.14,1.25-1.59a.28.28,0,0,0-.11-.46c-.57-.22-1-.68-1.71-.91a4.31,4.31,0,0,0-2.05,0c-1.37.23-2.73.57-4.1.8l-8.31,1.36a161.24,161.24,0,0,1-16.5,1.48c-5.47.23-11.05.23-16.51,0a43.29,43.29,0,0,1-7.63-.91,13.38,13.38,0,0,1-2-.57V121c0-.34-.34-.34-.57-.11s-.11.23-.22.23-.57-.12-.8-.23a2.2,2.2,0,0,0-.8-.23c-.34-.11-.57,0-.57.34a.92.92,0,0,0-.22-.57.86.86,0,0,0-1-.11c-1.25.91-.11,2.39.8,3.18a2.08,2.08,0,0,0,.57.34,11.21,11.21,0,0,0-.69,2c-.45,1.7-.91,3.41-1.48,5.11a32.55,32.55,0,0,1-4.43,9.43,15.49,15.49,0,0,1-7.4,5.46c-1.37.45-2.85.68-4.22,1-.34.12-2.61-.11-2.61.57,0,1.14,2.16,1.7,3,1.93a8.71,8.71,0,0,0,5.12-.23,18.16,18.16,0,0,0,8.42-5.79,33,33,0,0,0,5.24-10.11c.57-1.82,1.14-3.64,1.59-5.57a15.49,15.49,0,0,0,.68-2.5,14,14,0,0,0,2,.45c4.33.91,8.88.91,13.32,1a195.92,195.92,0,0,0,28.35-1.7c2.73-.34,5.35-.8,8.08-1.25.34,0,.68-.11.91-.11a5.79,5.79,0,0,0,.34,3.06,42,42,0,0,0,2.28,5.23,50.74,50.74,0,0,0,5.81,9.55,22.31,22.31,0,0,0,8.42,6.82,12.52,12.52,0,0,0,5.35,1.13,5.36,5.36,0,0,0,2.62-.68,3.87,3.87,0,0,0,1.48-1.82A.54.54,0,0,0,209.77,145.92Z"/><path class="cls-8" d="M185.07,113.42c-2.51.45-5.12.57-7.63.91s-4.89.68-7.28.91a73.31,73.31,0,0,1-15,.11,72.44,72.44,0,0,1-28.46-8.86c-2.39-1.37-4.78-2.73-7.06-4.21-1.14-.79-2.28-1.47-3.41-2.15a7.48,7.48,0,0,0-3.3-1.6.12.12,0,0,0-.12.12c.34,2.16,2.85,4.09,4.44,5.45a40.66,40.66,0,0,0,6.26,4.66,73.16,73.16,0,0,0,14.23,6.59,75.58,75.58,0,0,0,31,3.86,37,37,0,0,0,8.65-1.47,75.71,75.71,0,0,0,8.08-3.64A.41.41,0,0,0,185.07,113.42Z"/><path class="cls-8" d="M183.82,106c-4.22.91-8.88-.45-13-1.25s-8.2-1.47-12.3-2.38a97.35,97.35,0,0,1-23.67-8.07A60.07,60.07,0,0,1,129,90.92C128,90.35,127,89.67,126.1,89s-2.62-1.59-3-2.73a.27.27,0,0,0-.45-.11c-1,1.47,1,3.29,2,4.32a49.41,49.41,0,0,0,5.13,4.43A54.72,54.72,0,0,0,142,101.38c8.76,3.4,18,5.33,27.2,6.93,5.24.9,10.48,1.7,14.92-1.82C184.27,106.26,184,105.92,183.82,106Z"/><path class="cls-8" d="M187.23,97.74c-3-1-5.8-2.39-8.76-3.41a79.52,79.52,0,0,1-8.66-3.18,70.22,70.22,0,0,1-8.19-4.21c-2.74-1.59-5.13-3.52-7.86-5-.11,0-.22,0-.11.12a28.09,28.09,0,0,0,6.6,6.59A48.29,48.29,0,0,0,168.33,94a52.75,52.75,0,0,0,9.11,3.75,27.84,27.84,0,0,0,9.68.57C187.57,98.31,187.57,97.85,187.23,97.74Z"/><path class="cls-8" d="M109.14,118.87a2,2,0,0,0-.34-1.13.41.41,0,0,0-.34-.12,2,2,0,0,0-.92.69c-.22.11-.34.34-.56.56a6,6,0,0,1-.69.91,15.66,15.66,0,0,0-1.48,2.28l-1.36,2c0,.11-.12.11-.12.23s-.22.34-.34.45a6.73,6.73,0,0,1-.8.91c-.79.8-1.82,2-.91,3.18s2.51.23,3.42-.56a21.55,21.55,0,0,0,1.59-1.82,16.3,16.3,0,0,0,1.6-2.28,19.93,19.93,0,0,0,1.25-2.72,2.58,2.58,0,0,0,.11-.91v-.12c0-.11.12-.22.12-.45S109.25,119.21,109.14,118.87Z"/><path class="cls-8" d="M116.88,119.9a.81.81,0,0,0-1.14.34c-.11.11-.11.34-.23.45v.12c-.22.56-.68,1.36-.91,1.81-.45.91-.79,1.82-1.25,2.84-.91,1.82-1.82,3.53-2.85,5.23s-2.16,3.18-3.3,4.66c-1.25,1.71-2.73,3.18-3.3,5.23a1.18,1.18,0,0,0,1.48,1.48c2.16-.69,3.64-3.07,5-4.78s2.62-3.63,3.87-5.57a38.1,38.1,0,0,0,3-6.13C117.56,124.33,118.7,120.81,116.88,119.9Z"/><path class="cls-8" d="M212.27,133.42a.25.25,0,0,0-.34.34c.12.23.69.57.23.23s-.11.11-.57-.34a6.86,6.86,0,0,0-1.59-.91c-.91-.46-1.94-.91-2.85-1.37a28.74,28.74,0,0,1-5.58-3.52,18.79,18.79,0,0,1-4-5.45,32.46,32.46,0,0,0-1.82-3.41c-.23-.34-1.37-1.82-1.94-1.48a1.71,1.71,0,0,0-.45,1.25,8.78,8.78,0,0,0,.34,2.5,35.06,35.06,0,0,0,1.71,4.43,17.27,17.27,0,0,0,5.8,6.37,44.78,44.78,0,0,0,7.29,4c1.36.57,3.3,1,4.21-.45A1.77,1.77,0,0,0,212.27,133.42Z"/><path class="cls-8" d="M214.78,127.4c-.12-.12-.12-.23-.23-.34s-.23-.35-.34-.46a1.59,1.59,0,0,1-.34-.45c-.23-.46-.23-.91-.46-1.37a.23.23,0,0,0-.45.12v1.25a10.86,10.86,0,0,1-1.6-.8,8.14,8.14,0,0,1-1.59-1,3.12,3.12,0,0,1-.68-.57c-.12-.11-.23-.23-.34-.34s-.12,0-.12-.11l-.11-.12a27,27,0,0,1-2.73-2.5l-1.26-1.25a12.15,12.15,0,0,0-1.59-1h-.11a9.2,9.2,0,0,0,0,1.82,5.74,5.74,0,0,0,.79,1.93,14.76,14.76,0,0,0,2.62,3.29,18.67,18.67,0,0,0,3.42,2.5c1.25.69,3.07,1.82,4.55,1.25A1.28,1.28,0,0,0,214.78,127.4Z"/><path class="cls-4" d="M148.87,146.37a.51.51,0,0,0,0-.56c-.12-.12-.12-.35-.23-.46-.57-1.25-1.94-1.93-3-2.5a7.07,7.07,0,0,0-4.55-.79c-2.39.45-4.44,2.61-5.81,4.54a1.32,1.32,0,0,0,.8,1.93c1.36.34,2.73-.34,3.87-.91a6,6,0,0,0,.8-.45,2.34,2.34,0,0,1,.68-.46c-.23.12-.34.12-.23.12s.11,0,.23-.12a.42.42,0,0,0,.34-.11h.34c.12,0,.23.11.46.11s.22.12.45.12h0a9.38,9.38,0,0,0,1.82.91,4.09,4.09,0,0,0,2.85.11,2.43,2.43,0,0,0,.68-.45s.34-.34.46-.34c.11-.23.11-.23.11-.12l.23-.23C148.75,146.71,149,145.92,148.87,146.37Z"/><path class="cls-4" d="M185.75,146.26a2.07,2.07,0,0,0-.23-.91,5,5,0,0,0-.91-1.25,4.87,4.87,0,0,0-1.93-1.14,10.68,10.68,0,0,0-4.56-1,13.78,13.78,0,0,0-4.21.68c-1.71.57-3.41,1.59-3.64,3.53a1.59,1.59,0,0,0,1.25,1.59,3,3,0,0,0,1.71-.12c-.34.12.34-.11.45-.11a1.71,1.71,0,0,1,.69-.23.34.34,0,0,0,.22-.11.39.39,0,0,0,.23-.11c.12,0,.23-.12.46-.12s.45-.11.79-.23c.12,0,.35-.11.46-.11a8.88,8.88,0,0,1,1.71,0h.34a2,2,0,0,0,.8.11c.22.12.57.12.79.23s.46.12.46.23l1.36.68a5.82,5.82,0,0,0,1.26.46h.57a.82.82,0,0,0,.45-.12c.57-.23.57-.23.23,0a1.57,1.57,0,0,0,1.14-1.48C185.64,147.4,185.75,146.49,185.75,146.26Z"/><path class="cls-9" d="M146.48,160.69a4.37,4.37,0,0,0,.11-1.25c0-.34-.11-.79-.11-1.25s-.12-.79-.23-1.14-.23-.56-.34-.9a3.18,3.18,0,0,0-1-1.14c-.11-.11-.34-.23-.45-.34a2.43,2.43,0,0,0-.91-.57,1.36,1.36,0,0,0-.91-.23,2.23,2.23,0,0,0-1.48.12,6.44,6.44,0,0,0-1.71,1,3,3,0,0,0-.8,1.25,3.11,3.11,0,0,0-.34,1.48v1.93a.42.42,0,0,1-.11.34,3.24,3.24,0,0,0-.12,1.48,2.84,2.84,0,0,0,.23.91,2.49,2.49,0,0,0,.23.9,2.87,2.87,0,0,0,.79,1.25,3.42,3.42,0,0,0,1.26.8,3.11,3.11,0,0,0,1.48.34,3.46,3.46,0,0,0,2.62-1.14,3.83,3.83,0,0,0,1-2.15,5.06,5.06,0,0,0,.57-1A1.57,1.57,0,0,1,146.48,160.69Z"/><path class="cls-9" d="M181.31,160.69a4,4,0,0,0,.12-1.25c0-.34-.12-.79-.12-1.25s-.11-.79-.23-1.14-.22-.56-.34-.9a3.24,3.24,0,0,0-1-1.14c-.12-.11-.34-.23-.46-.34a2.43,2.43,0,0,0-.91-.57,1.36,1.36,0,0,0-.91-.23A2.24,2.24,0,0,0,176,154a6.44,6.44,0,0,0-1.71,1,2.87,2.87,0,0,0-.79,1.25,3.11,3.11,0,0,0-.34,1.48v1.93a.4.4,0,0,1-.12.34,3.23,3.23,0,0,0-.11,1.48,2.6,2.6,0,0,0,.23.91,2.7,2.7,0,0,0,.22.9,3,3,0,0,0,.8,1.25,3.29,3.29,0,0,0,1.25.8,3.13,3.13,0,0,0,1.48.34,3.45,3.45,0,0,0,2.62-1.14,3.77,3.77,0,0,0,1-2.15,4.62,4.62,0,0,0,.57-1A1.72,1.72,0,0,1,181.31,160.69Z"/><path class="cls-7" d="M164.12,171.37a.43.43,0,0,0-.68-.11l-.34.34h-.46c.23,0-.91.34-.34.11-.11,0-.11,0-.23.12s-.91.22-.91.34c-.23.11-.34.23-.57.23a1.2,1.2,0,0,0-.34.11.42.42,0,0,0-.34.11H159a1.06,1.06,0,0,1-.57-.11H158c-.56-.11-1-.34-1.59-.46s-1-.34-1.59-.45c-.23,0-1-.23-1.14.23a1.86,1.86,0,0,0,.57,1.7A5.94,5.94,0,0,0,155.7,175a6.45,6.45,0,0,0,4,1.25,5.55,5.55,0,0,0,3.76-1.48,3.39,3.39,0,0,0,.91-2A2.08,2.08,0,0,0,164.12,171.37Z"/><path class="cls-7" d="M166.4,188.19a4.87,4.87,0,0,0-3.19-2.16,12.36,12.36,0,0,0-3.53-.23,8.2,8.2,0,0,0-3.53,1.14,5.39,5.39,0,0,0-1.59,1.25,5.73,5.73,0,0,0-.68,1.48A.93.93,0,0,0,155,190.8c.35-.11.8-.22,1.14-.34s.57-.22.91-.34c.12,0,.12,0,.23-.11s.12,0,.12-.11l1.25-.35c.22,0,.45-.11.68-.11h2.16c.23,0,.46.11.69.11a6.61,6.61,0,0,1,1.36.46c.23.11.46.11.57.23s.68.11.23,0a.86.86,0,0,1,.45.11C165.94,190.58,167.2,189.33,166.4,188.19Z"/><path class="cls-6" d="M86.26,290.23c-.8,0-1.6.91-2.05,1.6s-.8,1.25-1.14,1.81-.68,1.25-1,1.82a8.46,8.46,0,0,0-1.13,2.27c-.35,1-.46,2.39.57,3s2.39-.23,3.18-1.14a18.32,18.32,0,0,0,2.28-4.2,7.52,7.52,0,0,0,.57-2.16C87.74,292.05,87.62,290.23,86.26,290.23Z"/><path class="cls-6" d="M142.15,223.87c0-.11,0-.11-.11-.34v-.11a1.72,1.72,0,0,0-.34-.57l-.35-.34c-.11-.11-.34-.23-.45-.34a1.92,1.92,0,0,0-.8-.46c.46.23.12,0,0,0l-.68-.34a23.44,23.44,0,0,1-2.39-1.13,11.51,11.51,0,0,0-2.73-1.14,1.35,1.35,0,0,0-1.48,2.05,8,8,0,0,0,3.64,3.06,12.91,12.91,0,0,0,2.28.91,3.18,3.18,0,0,0,2.84-.22,1.26,1.26,0,0,0,.69-.57C142.38,224.21,142.27,224.1,142.15,223.87Z"/><path class="cls-10" d="M168.56,499.78c-.34-4.09-.68-8.07-1.25-12.16a45.21,45.21,0,0,0-1-5.68c-.34-1.59-.68-4-2.16-5a.83.83,0,0,0-1,.11c-1.14,1.25-.91,3.52-.91,5.11,0,1.94,0,3.87.11,5.8.11,4,.11,8,.11,11.93,0,3.18,0,6.36-.11,9.66,0-.11-.11-.11-.11-.23-1.14-1.25-2.62-2.27-3.87-3.41a20.84,20.84,0,0,1-5.47-7.72c-1.36-3.75-1.71-7.84-2.39-11.71-.34-2-.68-4.2-1.14-6.25-.22-.91-1.36-4-3-3s-1.14,3.63-.91,5.34c.23,2.16.57,4.32.8,6.36.57,4.09.91,8.3,2.62,12.16a25.1,25.1,0,0,0,5.92,8.3,30.6,30.6,0,0,0,4.09,3.52,7.19,7.19,0,0,0,2.74,1.13,1.37,1.37,0,0,0,.68.12,30.66,30.66,0,0,0,0,3.18c.11,2.05.57,4.43,2.39,5.68a1.59,1.59,0,0,0,1.59,0c1.83-.91,2.51-3.41,2.74-5.34a57.18,57.18,0,0,0,.22-6.14C168.9,507.85,168.9,503.75,168.56,499.78Z"/><path class="cls-10" d="M111.19,468.64c-.23-1-.8-1.36-1.6-1.93a1.58,1.58,0,0,0-1.7.23,1.37,1.37,0,0,0-.46.34c-.23.23-.45.57-.68.79a18.14,18.14,0,0,0-1.37,1.48c-1,1.36-1.93,2.73-3,4.09a59.6,59.6,0,0,1-5.92,7.27,30.64,30.64,0,0,1-6.94,5.8A33.39,33.39,0,0,1,85,489a21.26,21.26,0,0,0-2.39,1A4.65,4.65,0,0,0,81,491.37c-.11.11,0,.11,0,.23.68.45,1,.91,1.94,1a24.46,24.46,0,0,0,2.84,0A20.24,20.24,0,0,0,91.61,491a31.1,31.1,0,0,0,9.1-6.25,64.6,64.6,0,0,0,7.18-8.52c1.13-1.6,2.5-3.07,3.07-5A4.91,4.91,0,0,0,111.19,468.64Z"/><path class="cls-10" d="M233.56,497.05c-.68-1.93-2.39-2.39-4-3.07-1.37-.57-2.73-1.25-4-1.93a46.07,46.07,0,0,1-6.83-4.77,36.43,36.43,0,0,1-5.69-6.14,34,34,0,0,1-2.39-3.75,26.6,26.6,0,0,0-2.39-3.86c-1-1.25-3.3-.23-3.19,1.36.23,3.07,2.05,6.14,3.76,8.75a44,44,0,0,0,6,7.62,42.72,42.72,0,0,0,7.63,5.79,27.42,27.42,0,0,0,4.44,2.27c1.71.68,3.76,1.71,5.46.57A2.58,2.58,0,0,0,233.56,497.05Z"/></g></g></svg>